<svg xmlns="http://www.w3.org/2000/svg" width="1200" height="500" viewBox="0 0 1200 500" enable-background="new 0 0 1200 500"><path fill="#6eaecc" d="m-1 500v-501h1201v501"/><path d="M0 500V381.2h20.4v-33h21v-21.7h44.4V362h25v-27.3h8.3l19.6-26.4 19.6 26.4h8.3v43.7h17.7v-60.1l51-19.8v72.8H253v-22.3h33v29.4h20.5v-94h46.9v60.9h23.1v-72.8l10.9-12.9v-15.2c0-0.5 0.4-1 1-1 0.5 0 1 0.4 1 1v15.2l11.5 13v43.4h38.3v35.4h14.2v-55.8h25.1v39.9h17.6v-73.5l38.3 13.2v73.3h15.9v-7.1V310h9.9v-21.8l17.2-9.2 17.2 9.2V310h9.9v11.2H620l4.9-65.2h17.8l5.4 35.2h23.7V240h9.9v-14.6l34.4 14.6h9.9v31.2h16.5v-85l38.3-1.2v52.2h26.3v-62.6h8.3l19.6-26.4 19.6 26.4h8.3v33.7h14.4v-60.1l51-19.8v61.2H946v-10.7h33v29.4h21.8v-74h46.9v46.9h42.3V139l13.2-7.9h0v-8.3h29v8.3l13.2 7.9v60.7h21.8l0.1 25.8h32.6V500H0z" fill="#4496bd"/><g fill="#6eaecc"><path d="m915.3 153.2h2.5v7h-2.5z"/><path d="m909.1 159h2.5v7h-2.5z"/><path d="m192.9 328.3h4.5v6.4h-4.5z"/><path d="m202.3 338.6h4.5v6.4h-4.5z"/><path d="m706.7 248.5h2v4.6h-2z"/><path d="m701.2 248.5h2v4.6h-2z"/><path d="m467.3 303.1h2.1v3.7h-2.1z"/><path d="m472.1 303.1h2.1v3.7h-2.1z"/><path d="m457.3 303.1h2.1v3.7h-2.1z"/><path d="m467.3 310.1h2.1v3.7h-2.1z"/><path d="m712.2 248.6h2v4.6h-2z"/><path d="m580.4 302.5v-5.1c0-1.8-1.5-3.3-3.3-3.3-1.8 0-3.3 1.5-3.3 3.3v5.1h6.6"/><circle cx="388.4" cy="280.3" r="4.7"/><path d="m262.7 360.1v-3.2c0-.9-.8-1.7-1.7-1.7-.9 0-1.7.8-1.7 1.7v3.2h3.4"/><path d="m630.9 272.6h5.2v6.3h-5.2z"/><path d="m848.4 184.6h3.2v3.2h-3.2z"/><path d="m842.9 184.5h3.2v3.2h-3.2z"/><path d="m752.1 196.7h1.4v11.8h-1.4z"/><path d="m747.8 196.7h1.4v16.1h-1.4z"/><path d="m519.8 294.7h2.5v8.7h-2.5z"/><path d="m525.9 282.3h2.5v8.7h-2.5z"/><path d="m507.6 282.3h2.5v8.7h-2.5z"/><path d="m1124 145.1h2.5v8.7h-2.5z"/><path d="m1111.8 145.1h2.5v8.7h-2.5z"/><path d="m1105.7 145.1h2.5v8.7h-2.5z"/><path d="m73 336.6h2.5v8.7h-2.5z"/><path d="m60.8 336.6h2.5v8.7h-2.5z"/><path d="m141.6 341.7v-5.8c0-1.5-1.2-2.7-2.7-2.7-1.5 0-2.7 1.2-2.7 2.7v5.8h5.4"/><path d="m335.2 292.6h3v5.3h-3z"/><path d="m320.8 292.6h3v5.3h-3z"/><path d="m313.7 292.6h3v5.3h-3z"/><path d="m335.2 301.4h3v5.3h-3z"/><path d="m328 301.4h3v5.3h-3z"/></g><path d="m652.6 108.2c0-7-8.7-11.5-15.8-11.5-.7 0-1.4.1-2.1.2-2.7-7-9.5-12-17.4-12-8.2 0-13.2 5.3-15.7 12.7-1.4-.6-16.4-3.4-18.5 10.6h69.5" fill="#84bad3"/><g fill="#4496bd"><path d="m514.3 262.4h2.7v14h-2.7z"/><path d="m520.3 264.4h2.7v14h-2.7z"/><path d="m526.3 266.4h2.7v14h-2.7z"/><path d="m950 167h3.5v18.4h-3.5z"/><path d="m957 171h3.5v18.4h-3.5z"/><path d="m964 174h3.5v18.4h-3.5z"/><path d="m46.7 308.5h25.1v9.5h-25.1z"/></g><g stroke-miterlimit="10"><g stroke-width="3"><g fill="none" stroke="#4496bd"><path d="m52.4 312.9v28.9"/><path d="m66 312.9v28.9"/></g><path d="M1200 500V260.4c-17.3-0.8-34.3-1.1-51-1.1 -103.1-0.3-218 14.1-344 50.6C397.7 427.9 375.1 436 0 438.7V500" fill="#7db25b" stroke="#494949"/></g><g opacity=".5" fill="none" stroke="#2c7145" stroke-linecap="round" stroke-width="2"><path d="m48.4 470l4.1-4 4.2 4 4.1-4 4.2 4 4.2-4 4.1 4"/><path d="m157.5 475l4.2-4 4.1 4 4.2-4 4.2 4"/><path d="m508.7 458l4.1-4 4.2 4 4.2-4 4.1 4"/><path d="m417.7 451l4.1-4 4.2 4 4.2-4 4.1 4"/><path d="m639.3 449l-4.1-4-4.2 4-4.2-4-4.1 4-4.2-4-4.1 4"/><path d="m369.6 479l-4.1-4-4.2 4-4.1-4-4.2 4-4.2-4-4.1 4"/><path d="m280.2 463l-4.2-4-4.2 4-4.1-4-4.2 4"/><path d="m591.2 412l4.2-4 4.1 4 4.2-4 4.1 4 4.2-4 4.2 4"/><path d="m1155.3 468l4.2-4 4.1 4 4.2-4 4.2 4"/><path d="m918.5 485l-4.2-4-4.1 4-4.2-4-4.2 4-4.1-4-4.2 4"/></g><g stroke="#494949"><g stroke-width="4"><g fill="#5b4d40"><path d="M747.7 452.4V248.8c0-6 4.9-10.8 10.8-10.8 6 0 10.8 4.8 10.8 10.8v203.6H747.7z"/><path d="m1084.1 452.4v-203.6c0-6 4.9-10.8 10.8-10.8 6 0 10.8 4.8 10.8 10.8v203.6h-21.6z"/></g><g fill="#82613e"><path d="m716.6 249.9h420.2v20.7h-420.2z"/><path d="m716.6 282.4h420.2v20.7h-420.2z"/><path d="m716.6 314.9h420.2v20.7h-420.2z"/><path d="m696 353.9h459.7v21.7h-459.7z"/></g></g><g fill="#82613e" stroke-width="3"><circle cx="759.4" cy="260.3" r="2.6"/><path d="m762 292.1c0 1.4-1.2 2.6-2.6 2.6-1.4 0-2.6-1.2-2.6-2.6 0-1.4 1.2-2.6 2.6-2.6 1.5 0 2.6 1.1 2.6 2.6z"/><path d="m762 326.2c0 1.4-1.2 2.6-2.6 2.6-1.4 0-2.6-1.2-2.6-2.6 0-1.4 1.2-2.6 2.6-2.6 1.5 0 2.6 1.2 2.6 2.6z"/><circle cx="1095" cy="260.3" r="2.6"/><path d="m1097.6 292.1c0 1.4-1.2 2.6-2.6 2.6s-2.6-1.2-2.6-2.6c0-1.4 1.2-2.6 2.6-2.6s2.6 1.1 2.6 2.6z"/><path d="m1097.6 326.2c0 1.4-1.2 2.6-2.6 2.6s-2.6-1.2-2.6-2.6c0-1.4 1.2-2.6 2.6-2.6s2.6 1.2 2.6 2.6z"/></g><g fill="none" stroke-linecap="round" stroke-width="2"><path d="m787.7 257.4h48.4"/><path d="m839 263.7h88"/><path d="m943.4 257.6h96.6"/><path d="m779.6 296.3h54.5"/><path d="m840.2 289.9h29.4"/><path d="m878.5 294.3h107.9"/><path d="m716.7 323.7h14.4"/><path d="m781 328.3h106.7"/><path d="m873.9 321.7h86.2"/><path d="m960.7 328.3h87.7"/><path d="m1135.4 263.4h-14.4"/><path d="m1155.6 363.5h-60.5"/><path d="m1069.1 368.4h-87.4"/><path d="m942.8 361.5h-86.8"/><path d="m851.7 366.6h-34.3"/><path d="m781 363.5h-75.5"/><path d="m793.4 369.5h-24.5"/></g><path d="m995.7 457.4v-7.7c0-5.4-4.4-9.7-9.7-9.7h-11c-5.4 0-9.7 4.4-9.7 9.7v7.8c-4.5 3-7.5 8.1-7.5 14h45.8c-.1-5.9-3.2-11.1-7.9-14.1z" fill="#bdbca2" stroke-width="4"/><g fill="none" stroke-linecap="round" stroke-width="3"><path d="m973.1 445.9h14.4"/><path d="m973.1 450.2h14.4"/><path d="m973.1 441.6h14.4"/></g></g></g><path fill="#494949" d="m954.8 471.9h51.5v7.1h-51.5z"/><g stroke="#494949" stroke-miterlimit="10"><path d="m991.2 456.6c-3-1.2-6.7-1.8-10.5-1.8-3.8 0-7.4.7-10.4 1.8" fill="none" stroke-linecap="round" stroke-width="2"/><g stroke-width="3"><path d="m1053.5 457.4v-7.7c0-5.4-4.4-9.7-9.7-9.7h-11c-5.4 0-9.7 4.4-9.7 9.7v7.8c-4.5 3-7.5 8.1-7.5 14h45.8c-.1-5.9-3.2-11.1-7.9-14.1z" fill="#bdbca2"/><g fill="none" stroke-linecap="round"><path d="m1031.7 444.6h14.4"/><path d="m1031.7 450.2h14.4"/><path d="m1031.7 439.1h14.4"/></g></g></g><path fill="#494949" d="m1012.8 471.9h51.5v7.1h-51.5z"/><g stroke="#494949" stroke-miterlimit="10"><g stroke-linecap="round"><path d="m1048.6 456.6c-3-1.2-6.7-1.8-10.5-1.8-3.8 0-7.4.7-10.4 1.8" fill="none" stroke-width="2"/><path d="m941.9 282.7c5.1-.1 9.2 4 9.3 9.1l.1 9.3c.1.1.2.1.4.2 2.3 1.4 3.6 4.6 4.3 7.4l1.8 5.4c.4 1-.1 2.1-1.1 2.5-1 .4-2.1-.1-2.5-1.1l-2.2-6.7c-.1-.1-.3-.3-.5-.5v.3l1.5 15.3c.1 1.1-.7 2-1.7 2.1-1.1.1-2-.7-2.1-1.7l-.7-7.4c-.4.3-.8.7-1.2.9l.7 9.6c.1 1.1-.7 2-1.8 2.1-1.1.1-2-.7-2.1-1.8l-.6-8.5c-.3 0-.7.1-1 .1-.1 0-.1 0-.2 0l.3 7.9c0 1.1-.8 2-1.8 2-1.1 0-2-.8-2-1.8l-.4-9c-.4-.2-.8-.4-1.2-.7l.1 6.7c0 1.1-.8 1.9-1.9 2-1.1 0-1.9-.8-1.9-1.9l-.2-13.9c0-.1 0-.2 0-.3l-.1-5.6v-.5c0 0 0 0 0 0l-.1-12c-.3-5.3 3.7-9.5 8.8-9.5z" fill="#fff4c7" stroke-linejoin="round" stroke-width="3"/></g><g fill="none" stroke-width="3"><path d="m1010.6 195.9v22.3"/><path d="m1041.5 230.5v13.6c0 4.4-3.6 8-8 8-4.4 0-8-3.6-8-8v-13.6h16z"/></g><path d="m1052.4 321.3c0 6.9-5.6 12.5-12.5 12.5h-59.1c-6.9 0-12.5-5.6-12.5-12.5v-120c0-6.9 5.6-12.5 12.5-12.5h59.1c6.9 0 12.5 5.6 12.5 12.5v120z" fill="#f78259" stroke-width="4"/></g><path fill="#494949" d="m968.3 310.5h84.1v7.2h-84.1z"/><g stroke="#494949" stroke-miterlimit="10"><g stroke-linejoin="round"><path d="m1031.1 267.7c-.1-.1-.1-.2-.2-.4-1.5-2.2-4.8-3.3-7.6-3.9l-5.5-1.5c-1-.3-2.1.2-2.4 1.3-.3 1 .2 2.1 1.2 2.4l6.8 1.8c.2.1.3.3.6.5" fill="#fff4c7" stroke-linecap="round" stroke-width="2"/><g stroke-width="3"><g fill="#fff"><path d="m1022.8 261.2l-1.5 27.4c0 1.5-1.3 2.8-2.8 2.8l-13.9-.1c-1.5 0-2.8-1.3-2.8-2.8l-1.3-27.4 22.3.1z"/><path d="m1024.7 258.2h-.8v-2.6c0-.8-.6-1.4-1.4-1.4l-21.6-.1c-.8 0-1.4.6-1.4 1.4v2.6h-.8c-.8 0-1.4.6-1.4 1.4v1.7l28.8.1v-1.7c-.1-.8-.7-1.4-1.4-1.4z"/></g><path d="m1024 268h-.3l-14.9-.7c-1-.1-1.9.7-2 1.8 0 1 .8 1.9 1.8 2l7.2.4c-.3.4-.6.8-.9 1.3l-9.4-.2c-1 0-1.9.8-1.9 1.8 0 1 .8 1.9 1.8 1.9l8.4.2c0 .3 0 .7 0 1 0 .1 0 .1 0 .2l-7.7.1c-1 0-1.9.9-1.9 1.9 0 1 .9 1.9 1.9 1.9l8.8-.1c.2.4.5.8.8 1.2l-6.5.2c-1 0-1.8.9-1.8 2 0 1 .9 1.8 2 1.8l13.5-.5c.1 0 .2 0 .3 0l5.5-.2h.5c0 0 0 0 0 0l11.7-.5c4.9-.2 8.8-4.4 8.6-9.3-.2-4.9-4.4-8.8-9.3-8.6l-9.1.4" fill="#fff4c7" stroke-linecap="round"/></g></g><g stroke-width="4"><g fill="#303030"><path d="m963.9 340.9c0 5.8 1.3 10.5 2.8 10.5h87.3c1.6 0 2.8-4.7 2.8-10.5l-4.3-26.4h-83.8l-4.8 26.4z"/><path d="m963.9 445.4v-106.5c0-9.9 8.1-18 18-18 9.9 0 18 8.1 18 18v106.5h-36z"/><path d="m1020.8 445.4v-106.5c0-9.9 8.1-18 18-18 9.9 0 18 8.1 18 18v106.5h-36z"/></g><g fill="#fff4c7"><path d="m1026.9 189.2c-.5-6.2 1.9-11.2 1.9-11.2h-33.6c0 0 2 6.3-.1 13 7 4.4 20.6 10.1 31.8-1.8z"/><path d="m1046.5 143.9c0 3.6-3.5 6.5-6.5 6.5-6 0-6-12.9 0-12.9 3 0 6.5 2.9 6.5 6.4z"/><path d="m977.5 143.9c0 3.6 4.5 6.5 6.5 6.5 4 0 4-12.9 0-12.9-2 0-6.5 2.9-6.5 6.4z"/><path d="m1038.3 158.7c0 12.6-11.8 22.4-26.3 22.4-14.5 0-26.3-9.8-26.3-22.4v-1.8-24.6c0-15.2 11.7-27.6 26.3-27.6 14.5 0 26.3 12.3 26.3 27.6v24.4 2z"/></g></g></g><g fill="#494949"><path d="m1025.8 137.2c0 1.2-1 2.1-2.1 2.1-1.2 0-2.1-.9-2.1-2.1 0-1.2.9-2.1 2.1-2.1 1.2-.1 2.1.9 2.1 2.1"/><path d="m1004 137.2c0 1.2-.9 2.1-2.1 2.1-1.2 0-2.1-.9-2.1-2.1 0-1.2 1-2.1 2.1-2.1 1.1-.1 2.1.9 2.1 2.1"/></g><g fill="none" stroke="#494949" stroke-linecap="round" stroke-width="3" stroke-miterlimit="10"><path d="m1002.2 162c0 0 10.1 10.2 20.9.5"/><path d="m995.1 130.2c0 0 4.9-5.8 10.7 0"/><path d="m1017.6 150.5c0 0-4.9 5.8-10.7 0"/><path d="m1018.6 129.5c0 0 4.7-5.5 10.2 0"/></g><path d="m980.5 109c0 0 4.2 2.2 7 1.1 2.8-1.1 14.7-18 31.1-11.6 4.9 1.9 5.7 2.7 6.6 3.6l1.5 2.1c.2-.2 1-1.2 1.1-1.5.4-.7.7-1.1.7-1.1l.4 4.8 2.9-1.3-1 2.8c0 0 3.8 1.1 5.7 2.4 1.1.8 5.8 13.8 2.6 17.6l-.5.9c-10.1-3.8-11.3-4.3-11.6-14.4-27.6 20.7-46.5-5.4-46.5-5.4" fill="#494949"/><g stroke="#494949" stroke-miterlimit="10"><g fill="#f78259" stroke-width="4"><path d="m990.5 199.4c0-3.1-1.2-5.9-3.4-8.1-2.2-2.2-5-3.4-8.1-3.4-3.1 0-5.9 1.2-8.1 3.4l-36.2 36.2c-2.2 2.2-3.4 5-3.4 8.1 0 .2 0 .4 0 .5-.3 1-.5 2-.5 3.1v51.1c0 5.6 4.5 10.1 10.1 10.1 5.6 0 10.1-4.5 10.1-10.1v-46.8l36.1-36c2.2-2.1 3.4-5 3.4-8.1z"/><path d="m1091.1 237.9c0-3.1-1.2-6-3.4-8.1l-36.2-36.2c-2.2-2.2-5-3.4-8.1-3.4-3.1 0-6 1.2-8.1 3.4-2.2 2.2-3.4 5.1-3.4 8.1 0 3.1 1.2 6 3.4 8.1l29.6 29.6-28 28c-3.9 3.9-3.9 10.3 0 14.3 3.9 3.9 10.3 3.9 14.3 0l33.7-33.7c1-.5 2-1.2 2.9-2.1 2.1-2 3.3-4.9 3.3-8z"/></g><g fill="none" stroke-linecap="round" stroke-width="3"><path d="m1011 246.1c0-.2 0-.3 0-.5"/><path d="m1014.2 241.6c1.4-1 2.8-2.1 2.8-4.2 0-4.4-6-4.4-6-8.7 0-4.4 6-4.4 6-8.7 0-3.1-3.1-4-4.8-5.9" stroke-dasharray="1.0571 5.2853"/><path d="m1011 211.7c0-.2 0-.3 0-.5"/></g></g><path d="m967.4 445.4c-1.3 1.7-2.1 3.8-2.1 6v7.8c-4.5 3-7.5 8.1-7.5 14h45.8c0-6-3.1-11.2-7.8-14.2v-7.7c0-2.3-.8-4.4-2.1-6h6.4v-94h20.8v94h4.3c-1.3 1.7-2.1 3.8-2.1 6v7.8c-4.5 3-7.5 8.1-7.5 14h45.8c0-6-3.1-11.2-7.8-14.2v-7.7c0-2.3-.8-4.4-2.1-6h5.5v-106.3c0-2.6-.5-5-1.5-7.2l-2.8-17.2h-.1v-4-29.9l32.5-32.5c1-.5 2-1.2 2.9-2.1 2.2-2.2 3.4-5.1 3.4-8.1 0-3.1-1.2-6-3.4-8.1l-36.2-36.2c-1.5-1.5-3.3-2.5-5.2-3-1.9-1.2-4.1-1.8-6.5-1.8h-13c-.4-6.1 1.9-11.2 1.9-11.2h-2.5c7.2-4 12-10.9 12-18.9v-2-6.7c.5.3 1 .4 1.7.4 2.5 0 6.5-2.9 6.5-6.5 0-3.6-3.9-6.5-6.5-6.5-.6 0-1.2.1-1.7.4v-5.6c0-1.2-.1-2.4-.2-3.6.2.1.4.1.6.2l.5-.9c3.2-3.8-1.5-16.8-2.6-17.6-1.9-1.3-5.7-2.4-5.7-2.4l1-2.8-2.9 1.3-.4-4.8c0 0-.3.4-.7 1.1-.2.2-1 1.2-1.1 1.5l-1.5-2.1c-.9-.8-1.7-1.6-6.6-3.6-3-1.2-5.8-1.6-8.5-1.4 9.4 71.7 16.5 203.1-46.2 259.3v89h3.2m85-218.5l12.6 12.6-12.6 12.6v-25.2" opacity=".1" fill="#494949"/><g stroke="#494949" stroke-miterlimit="10"><g fill="#6897d5" stroke-width="4"><path d="M777.5 353v-13.7c0-6.6 5.4-12 12-12h89.6c6.6 0 12 5.4 12 12V353H777.5z"/><path d="m856.6 305.5c0 6.6 9.3 12 2.7 12h-51.2c-6.6 0 2.7-5.4 2.7-12l-20-92.6c0-6.6 5.4-12 12-12h61.8c6.6 0 12 5.4 12 12l-20 92.6z"/></g><path d="m860.7 202.4c-10.2-.5-15-2.8-15.9-7.8-.2-1.2-.3-2.5-.2-3.7.2-4.3 1.6-11.4 1.6-11.4h-24.5c0 0 1.1 7 .7 11.2-.1 1.5-.5 3.1-1.1 4.7-1.6 3.8-5.9 5.5-13.3 6 6.6 5.7 16.2 9.3 26.9 9.3 10.1.1 19.3-3.1 25.8-8.3z" fill="#fff4c7" stroke-width="3"/></g><path d="m834.5 176.2l30.9.4c0 0 1.5-39-4.4-52.3-13.9-31.3-48.5-18.7-53.8 1.9-3.5 13.8-3.6 50.4-3.6 50.4l30.9-.4" fill="#494949"/><path d="m856.7 165.5c0 10.3-9.7 18.4-21.6 18.4-11.9 0-21.6-8.1-21.6-18.4v-1.5-20.2c0-12.5 9.7-22.7 21.6-22.7 11.9 0 21.6 10.1 21.6 22.7v20 1.7z" fill="#fff4c7" stroke="#494949" stroke-width="4" stroke-miterlimit="10"/><g fill="#494949"><path d="m846.4 147.4c0 1-.8 1.7-1.7 1.7-1 0-1.7-.8-1.7-1.7 0-1 .8-1.7 1.7-1.7.9-.1 1.7.7 1.7 1.7"/><circle cx="826.7" cy="147.4" r="1.7"/></g><g fill="none" stroke="#494949" stroke-linecap="round" stroke-width="3" stroke-miterlimit="10"><path d="m821.2 141.6c0 0 4.1-4.7 8.8 0"/><path d="m840.5 141c0 0 3.9-4.5 8.4 0"/><path d="m839.5 155c0 0-3.9 4.5-8.4 0"/></g><g fill="#ff002d"><path d="m835.8 167.3c-1.6-3.4-3.9-.5-4.6.6 2.1 1.6 5.4 2.8 8.8 0-1.7-3.5-4-2.1-4.2-.6" opacity=".2"/><path d="m838.8 168.8c0 2.6-1.4 3.3-3.2 3.3-1.8 0-3.2-.7-3.2-3.3 3.2 1.2 4.2 1.4 6.4 0" opacity=".2"/></g><path d="m849.6 119c0 0-12 20-29 14.8-16.9-5.2 5.1-14.8 5.1-14.8h23.9" fill="#494949"/><g stroke="#494949" stroke-miterlimit="10"><g fill="#fff4c7" stroke-width="4"><path d="m797.1 449.7v-107.6c0-6.3 5.2-11.5 11.5-11.5 6.4 0 11.5 5.2 11.5 11.5v107.6h-23z"/><path d="m847 449.7v-107.6c0-6.3 5.2-11.5 11.5-11.5 6.4 0 11.5 5.2 11.5 11.5v107.6h-23z"/></g><path d="m828.7 165.6c0 0 6.5 8.6 13 .6" fill="none" stroke-linecap="round" stroke-width="3"/><g stroke-width="4"><path d="m902.6 248.8l-23.9-42.9c-1.3-2.3-3.3-3.9-5.8-4.6-.9-.2-1.8-.4-2.7-.4-1.6 0-3.3.4-4.7 1.2-2.3 1.3-3.9 3.3-4.6 5.8-.7 2.5-.4 5.1.9 7.4l21.8 39.1-28.9 29.7c-1.6 1.6-2.4 3.7-2.4 5.9 0 2.2.9 4.3 2.5 5.9 1.6 1.5 3.6 2.4 5.8 2.4 2.3 0 4.4-.9 6-2.5l34.2-35.1c.3-.3.6-.7.8-1 .8-1 1.4-2.1 1.8-3.4.7-2.7.4-5.3-.8-7.5z" fill="#fff4c7"/><path d="m879.9 205.3c-1.4-2.6-3.8-4.4-6.6-5.2-2.8-.8-5.8-.5-8.4 1-2.6 1.4-4.4 3.8-5.2 6.6-.8 2.8-.5 5.8 1 8.4l11.7 21 18.9-11.4-11.4-20.4z" fill="#6897d5"/><path d="m816 283.5l-28.9-29.7 21.7-39.1c1.3-2.3 1.6-4.9.9-7.4-.7-2.5-2.3-4.5-4.6-5.8-1.4-.8-3.1-1.2-4.7-1.2-.9 0-1.8.1-2.7.4-2.5.7-4.5 2.3-5.8 4.6l-23.9 42.9c-1.3 2.3-1.6 4.9-.9 7.4.4 1.3 1 2.4 1.7 3.4.3.4.5.7.9 1l34.2 35.1c1.6 1.6 3.7 2.5 6 2.5 2.2 0 4.3-.8 5.8-2.4 1.6-1.6 2.5-3.6 2.5-5.9.2-2.1-.7-4.2-2.2-5.8z" fill="#fff4c7"/><path d="m790.7 204.7c1.4-2.6 3.8-4.4 6.6-5.2 2.8-.8 5.8-.5 8.4 1 2.6 1.4 4.4 3.8 5.2 6.6.8 2.8.5 5.8-1 8.4l-11.7 21-18.9-11.4 11.4-20.4z" fill="#6897d5"/></g><path fill="none" stroke-linecap="round" stroke-width="3" d="m834.3 211.7v21.8"/></g><g opacity=".1" fill="#494949"><path d="M848 353v68.2h-3.1v33.9c-4.2 2.8-6.9 7.5-6.9 12.9h42.1c0-5.5-2.9-10.3-7.2-13v-33.7H871V353h21.1v-13.7c0-6.6-5.4-12-12-12h-46.7c-2.4 9.1-5.3 17.7-8.8 25.7H848z"/><path d="m795 421.2v33.9c-4.2 2.8-6.9 7.5-6.9 12.9h42.1c0-5.5-2.9-10.3-7.2-13v-33.7h-2v-60.8c-6.1 11.9-13.7 22.1-23 30.1v30.7h-3z"/><path d="m857.6 305.5l1.6-7.6c.7.2 1.5.3 2.3.3 2.3 0 4.4-.9 6-2.5l34.2-35.1c.3-.3.6-.7.8-1 .8-1 1.4-2.1 1.8-3.4.7-2.5.4-5.1-.9-7.4l-12.4-22.5 1.1-.7-11.3-20.4c-1.4-2.6-3.8-4.4-6.6-5.2-2.8-.8-5.7-.5-8.2.9-.1 0-.3 0-.4 0h-13.7c-3.7-1.3-5.6-3.3-6.1-6.3-.2-1.2-.3-2.9-.2-4 .1-2.6.7-6.5 1.1-9 2.7-1.3 5-3 6.8-5.1l13 .2c0 0 1.5-39-4.4-52.3-7.3-16.5-20.5-20.8-32-18.1 9.1 52.4 20.5 142.8 5.8 211.3h24.6c6.4-.1-2.9-5.5-2.9-12.1m15-69.6l.6 1.2 1.1-.7 10.1 18.1-20.4 20.9 8.6-39.5"/></g><path d="m787.3 325.3v-52.9c0-5.2 4.2-9.3 9.3-9.3h77.9c5.2 0 9.3 4.2 9.3 9.3v52.9h-96.5z" fill="#e3e3e3" stroke="#494949" stroke-linejoin="round" stroke-width="3" stroke-miterlimit="10"/><g fill="#494949"><path d="m883.5 327.1c0 1.5-1.2 2.7-2.7 2.7h-90.8c-1.5 0-2.7-1.2-2.7-2.7h96.2"/><circle cx="835.2" cy="294.3" r="3.9" opacity=".5"/><g opacity=".1"><path d="m883.8 272.4c0-5.2-4.2-9.3-9.3-9.3h-13.9c-8.1 17.7-23.1 45-44.9 62.3h68.2v-53z"/><path d="m883.5 327.1h-70.1c-1.2.9-2.5 1.8-3.8 2.7h71.2c1.5 0 2.7-1.2 2.7-2.7"/></g></g><g stroke-miterlimit="10"><path d="m851.8 268.7h22.7c2 0 3.7 1.6 3.7 3.7v6.3" fill="none" stroke="#fff" stroke-linejoin="round" stroke-linecap="round" stroke-width="2"/><g stroke="#494949"><path d="m880 466.5c0-5.4-2.8-9.1-7.1-11.8v-32.7h-27.8v32.9c-4.1 2.7-6.9 6.3-6.9 11.7v1.1h41.8v-1.2z" fill="#cc9a6b" stroke-width="3"/><g fill="none" stroke-linecap="round" stroke-width="2"><path d="m853 439.9h13.1"/><path d="m853 444.6h13.1"/></g></g></g><path fill="#494949" d="m835.8 468.1h46.9v6.5h-46.9z"/><g stroke="#494949" stroke-miterlimit="10"><g fill="none" stroke-width="2"><g stroke-linecap="round"><path d="m853 435.3h13.1"/><path d="m869.6 454.1c-3-1.2-6.7-1.8-10.5-1.8-3.8 0-7.4.7-10.4 1.8"/></g><path d="m859.3 433.6c-5.6 3-16.2-13.8.4 0"/><path d="m859.3 433.6c4.8 4 12.3-15.5-.3 0"/></g><path d="m829.5 466.5c0-5.4-2.8-9.1-7.1-11.8v-32.7h-27.8v32.9c-4.1 2.7-6.9 6.3-6.9 11.7v1.1h41.8v-1.2z" fill="#cc9a6b" stroke-width="3"/><g fill="none" stroke-linecap="round" stroke-width="2"><path d="m802.6 439.9h13"/><path d="m802.6 444.6h13"/></g></g><path fill="#494949" d="m785.3 468.1h46.9v6.5h-46.9z"/><g stroke-miterlimit="10"><g stroke="#494949" stroke-width="2"><g fill="none"><g stroke-linecap="round"><path d="m802.6 435.3h13"/><path d="m819.1 454.1c-3-1.2-6.7-1.8-10.5-1.8-3.8 0-7.4.7-10.4 1.8"/></g><path d="m808.9 433.6c-5.6 3-16.2-13.8.4 0"/><path d="m808.8 433.6c4.8 4 12.3-15.5-.3 0"/></g><path d="m491.1 348.8l-.7-.2c0-.1-.1-.2-.1-.3h.3c.2 0 .4-.1.4-.3 0-.2-.1-.4-.3-.4l-1.7-.4h-.1c0 0 .1 0 .1-.1l.3.2c.2 0 .4-.2.3-.4 0-.2-.4-.5-.4-.5-.5 0-1.2 0-1.6.3 0 0 0 0-.1.1l-1.4-.5c-.2-.4-9.5-5.4-9.5-5.4 0-.2-.1-.5-.2-.7l-4.6-10.5c-.3-.6-.8-1.1-1.4-1.4-.6-.3-1.3-.2-2 0-.6.3-1.1.8-1.4 1.4-.3.6-.2 1.3 0 2l4.6 10.5c.3.6.8 1.1 1.4 1.4.1 0 .3.1.4.1.2.2.4.3.6.5l9.3 4.7c.3.2.7.2 1 .2.2.1.3.2.5.3l2.1.7c0 0 0 0 0 0h.1l1 .3c0 0 0 0 .1 0l1.4.5c.2.1.4 0 .5-.2.1-.2 0-.4-.2-.5l-.1-.1c.1-.1.1-.1.2-.2l.5.2c.2.1.4 0 .4-.2.1-.2 0-.4-.2-.4l-.3-.1c0 0 0 0 0 0 0-.1 0-.1 0-.2l.5.1c.2.1.4-.1.4-.2.2 0 .1-.2-.1-.3z" fill="#fff4ca"/><path fill="none" d="m462.8 375l7.6 3.7"/><path d="m480 358c-.5-.7-1.1-1.3-1.9-1.5l-17.1-5c-1.7-.5-3.5.5-4 2.2l-.1.5c-.5 1.7.5 3.5 2.2 4l13.2 3.8-7.2 8.5 3.6 2.6 11.7-11c1-1.3.8-3.1-.4-4.1z" fill="#fff4ca"/><path d="m465.3 369.9c0 0 9.7 5.7 7.3 9.4-4.9-3-9.4-5.7-9.4-5.7l2.1-3.7z" fill="#303030"/></g><g fill="none"><g stroke="#cdcdcd" stroke-linecap="round"><path d="m501.8 372.8l-.5-7.8"/><path d="m502.3 380.4l.5 7.4"/><path d="m504.5 376.4l9.6-.6"/><path d="m498.6 376.7l-8.2.5"/><path d="m499.4 374.2l-5.9-5.2"/><path d="m505.1 379.2l5.6 4.9"/><path d="m503.8 374.7l6.4-7.2"/><path d="m499.9 379.2l-5.5 6.2"/><path d="m450.2 385l-.5-7.8"/><path d="m450.7 392.6l.4 7.4"/><path d="m452.9 388.6l9.6-.6"/><path d="m447 388.9l-8.3.6"/><path d="m447.8 386.4l-5.9-5.2"/><path d="m453.5 391.4l5.6 4.9"/><path d="m452.2 386.9l6.3-7.1"/><path d="m448.3 391.4l-5.5 6.2"/></g><g stroke="#494949"><circle cx="450.2" cy="389.3" r="15.1" stroke-width="3"/><path d="m436.5 378.3c2.3-2.9 5.6-5.1 9.5-6 5.7-1.4 11.5.2 15.6 3.8" stroke-linecap="round" stroke-width="2"/><circle cx="502" cy="376.7" r="15.2" stroke-width="3"/><g stroke-width="2"><path d="m484.2 377.5c-.4-8.3 5.1-16.1 13.5-18.1 3.3-.8 6.6-.6 9.7.4" stroke-linecap="round"/><circle cx="475.3" cy="383.2" r="4.6"/></g></g><g stroke="#f4e754" stroke-linecap="round" stroke-width="2"><path d="m474.9 383.3l-24.7 6"/><path d="m450.2 389.3l9.8-23.4"/><path d="m474.9 383.3l-20-23.6"/><path d="m460 365.9l25.6-10.1"/><path d="m482.8 351.6l19.2 25.1"/><path d="m482.8 351.6l9.5-3.4"/></g></g></g><path d="m451.6 357.2c0 0 5.1-1.6 7.3-1.5 7.3.1-.9 2.3-1.8 3.1-3.3 2.8-4.1 1.3-6.6.5-2.6-.8 1.1-2.1 1.1-2.1" fill="#494949"/><g stroke-width="2" stroke-miterlimit="10"><path fill="none" stroke="#f4e754" stroke-linecap="round" d="m475.3 383.2l10.3-27.4"/><g stroke="#494949"><path d="m463.1 352.5c-.9 1.3-2.2 1.9-3 1.4l-4.7-3.2c-.8-.5-.7-2 .1-3.3l10.4-17.8c.9-1.3 2.2-1.9 3-1.4l6.7 4.5c.8.5.7 2-.1 3.3l-12.4 16.5z" fill="#d68caa"/><g fill="#fff4ca"><path d="m474.6 331.7c.5-.8 1.3-1.4 1.3-1.4l-4.3-2.9c0 0-.3 1-1.2 1.7.4 1.3 1.7 3.2 4.2 2.6z"/><path d="m479.5 327.7c-.4 1.9-2.5 3.1-4.7 2.6-2.2-.5-3.7-2.3-3.3-4.2l.1-.3.8-3.7c.5-2.3 2.7-3.8 4.9-3.4 2.2.5 3.6 2.7 3.1 5l-.8 3.7-.1.3z"/><path d="m489.2 349.4l-.6-.2c0-.1 0-.2-.1-.3h.3c.2.1.4-.1.4-.2.1-.2-.1-.4-.2-.4l-1.7-.4h-.1c0 0 .1 0 .1-.1l.3.2c.2 0 .4-.2.4-.3 0-.2-.4-.5-.4-.5-.5-.1-1.2-.1-1.6.2 0 0 0 0-.1.1l-1.4-.5c-.2-.4-9.3-5.7-9.3-5.7 0-.2-.1-.5-.2-.7l-4.1-10.7c-.2-.6-.7-1.2-1.4-1.4-.6-.3-1.3-.3-2 0-.6.2-1.2.7-1.4 1.4-.3.6-.3 1.3 0 2l4.1 10.7c.2.6.7 1.2 1.4 1.4.1.1.2.1.4.1.2.2.3.3.6.5 0 0 9.7 5.3 10 5.3.1.1.3.2.5.3l2.1.8c0 0 0 0 0 0h.1l1 .4c0 0 0 0 .1 0l1.3.6c.2.1.4 0 .5-.2.1-.2 0-.4-.2-.5l-.1-.1c.1-.1.1-.1.2-.2l.5.2c.2.1.4 0 .5-.2.1-.2 0-.4-.2-.5l-.3-.2c0 0 0 0 0 0 0-.1 0-.1.1-.2l.5.1c.2.1.4 0 .4-.2-.1-.3-.2-.5-.4-.6z"/></g><path d="m471 329.7c-.2-.6-.7-1.2-1.4-1.4-.6-.3-1.3-.3-2 0-.6.2-1.2.7-1.4 1.4-.3.6-.3 1.3 0 2l1.9 4.8 4.7-2.1-1.8-4.7z" fill="#d68caa"/><circle cx="459.7" cy="357" r=".4" fill="none" stroke-linecap="round"/><path d="m470.7 366.3c-.1-.5-.3-1-.7-1.4l-7.7-8.7 1.5-4.7-8.4-3.6-2.2 3.8c-.8.7-1.1 1.6-1.1 2.5 0 .2 0 .4 0 .4.1.6.3 1.1.7 1.5l11.7 13.4c.1.1.2.2.4.3l3.1 14.4 4.2-.1-1.3-16.6c.1-.5 0-.9-.2-1.2z" fill="#fff4ca"/></g></g><path d="m468.3 385.1c-.1-.5.3-1 .9-1.1l9.5 3.1c.5.2.5.3 0 .4l-9 .8c-.5 0-1.1-.4-1.1-.9l-.3-2.3" fill="#303030"/><g stroke="#494949" stroke-width="2" stroke-miterlimit="10"><g fill="none"><path d="m468.3 385.1c-.1-.5.3-1 .9-1.1l9.5 3.1c.5.2.5.3 0 .4l-9 .8c-.5 0-1.1-.4-1.1-.9l-.3-2.3z"/><path d="m469.9 389.7l8.4-.8"/></g><g fill="#fff"><path d="m461 351.5c-1.7-.5-3.5.5-4 2.2l-.1.5c-.5 1.7.5 3.5 2.2 4l8.8 2.6 3.4-6.2-10.3-3.1z"/><path d="m463.8 351.4l-8.4-3.6-2.2 3.8c-.8.7-1.1 1.6-1.1 2.5 0 .2 0 .4 0 .4.1.6.3 1.1.7 1.5l9.8 11.1 5.4-4.3-5.9-6.7 1.7-4.7z"/></g><path d="m477.4 317.6c-.7-.1-1.5-.1-2.2 0-2 .5-3.5 2.1-4 4.2l-.3 1.4c3.1.5 7.4.7 10.4.7.7-2.9-1.1-5.7-3.9-6.3z" fill="#d68caa"/><path fill="none" stroke-linecap="round" d="m458.5 348l4.5-7.1"/></g><g opacity=".2" fill="#494949"><path d="m475.8 330.4c1.8 0 3.4-1.1 3.7-2.7l.1-.3.7-3.5c.4 0 .8 0 1.1 0 .6-2.9-1.2-5.7-4-6.3-.5-.1-1.1-.1-1.6-.1.1 3.6 0 8.2-.5 13.4.2-.3.5-.5.5-.5"/><path d="m465.1 369.7l.1.4-2 3.5c0 0 1.2.8 3.1 1.9l1.9 8.7.5 4.2c0 0 5.3-.5 11-1-.2-2.6-4.1-3.3-7.3-3.4l-.4-5.1c.2.1.4.3.6.4.8-1.3.2-2.8-.9-4.2l-.4-4.5 9-8.4c1-1.2.9-3.1-.4-4.1h-.1c-.4-.7-1-1.2-1.9-1.5l-6.8-2-2.6-.8c-2.1 4-4.8 7.6-8.3 10.7l4.4 5c.3 0 .4.1.5.2m7.1-7.8l-2.4 2.8-4.1-4.7 6.5 1.9"/><path d="m472.6 344.3c0 0 9.7 5.3 10 5.3.1.1.3.2.5.3l2.1.8c0 0 0 0 0 0h.1l1 .4c0 0 0 0 .1 0l1.3.6c.2.1.4 0 .5-.2.1-.2 0-.4-.2-.5l-.1-.1c.1-.1.1-.1.2-.2l.5.2c.1.1.3 0 .4-.1l.7.3c.2.1.4 0 .5-.2.1-.2 0-.4-.2-.5l-.1-.1c.1-.1.1-.1.2-.2l.5.2c.2.1.4 0 .4-.2.1-.2 0-.4-.2-.4l-.3-.1c0 0 0 0 0 0 0-.1 0-.1 0-.2l.5.1c.2.1.4-.1.4-.2.1-.2-.1-.4-.3-.4l-.7-.2c0-.1-.1-.2-.1-.3h.3c.2 0 .4-.1.4-.3 0-.2-.1-.4-.3-.4l-1.7-.4h-.1c0 0 .1 0 .1-.1l.3.2c.2 0 .4-.2.3-.4 0-.2-.4-.5-.4-.5-.5 0-1.2 0-1.6.3 0 0 0 0-.1.1l-1.4-.5c-.2-.4-9.5-5.4-9.5-5.4 0-.2-.1-.5-.2-.7l-1.6-3.7.4-.6c.9-1.3.9-2.8.1-3.3l-.6-.4c-.2 3.9-.9 8-2.1 12"/></g><g stroke="#494949" stroke-width="2" stroke-miterlimit="10"><path d="m44.9 391.4c.5-.8 1.5-1 2.3-.4l1.4.9c0 0 0 0 .1 0 .4-.2 1.1-.1 1.5.1l1 .3c.2 0 .3.2.2.4 0 .2-.2.3-.4.3l-1.2-.4c0 0-.1 0-.1 0h.1l2.4 1.3c.2.1.2.3.1.5-.1.2-.3.2-.5.1l-1.2-.6c0 .1 0 .2 0 .3l1.5.9c.2.1.2.3.1.5-.1.2-.3.2-.5.1l-1.3-.8c0 .1-.1.1-.1.2l1.2.8c.2.1.2.3.1.5-.1.2-.3.2-.5.1l-1.4-.9c-.1 0-.2.1-.2.1l1 .7c.2.1.2.3.1.5-.1.2-.3.2-.5.1l-2.1-1.4c0 0 0 0 0 0l-.8-.6h-.1c0 0 0 0 0 0l-1.8-1.2c-.7-.6-.9-1.6-.4-2.4z" fill="#fff4ca" stroke-linejoin="round" stroke-linecap="round"/><path d="m47 390.4c.9.7 1.1 1.9.4 2.8-.7.9-1.9 1.1-2.8.4l-8.1-6.1c-.9-.7-1.1-1.9-.4-2.8.7-.9 1.9-1.1 2.8-.4l8.1 6.1z" fill="#f78259"/></g><path d="m43.4 433c0-.6.4-1 1-1l8.9 4c.5.2.5.4-.1.4l-8.8-.1c-.6 0-1-.5-1-1v-2.3" fill="#494949"/><g stroke="#494949" stroke-width="2" stroke-miterlimit="10"><path d="m43.4 433c0-.6.4-1 1-1l8.9 4c.5.2.5.4-.1.4l-8.8-.1c-.6 0-1-.5-1-1v-2.3z" fill="none"/><path d="m41.3 393c-.1 1.5-2.3 2.8-3.3 2.7l-5.6-.2c-.9 0-1.6-1.3-1.6-2.8l-.4-20.1c.1-1.5.9-2.7 1.8-2.7l7.9.3c1.5.1 2.9 1.2 2.8 2.8l-1.6 20z" fill="#f78259"/><g fill="#fff4ca"><path d="m38.6 370.9c.2-.9.8-1.7.8-1.7l-4.9-1.4c0 0 0 1.1-.6 2 .8.9 2.6 2.3 4.7 1.1z"/><path d="m41.6 366.3c-.1 1.9-2 3.3-4.2 3.2-2.2-.1-3.9-1.7-3.8-3.6v-.3l.2-3.7c.1-2.3 2-4.1 4.2-4 2.2.1 3.9 2.1 3.8 4.4l-.2 3.7v.3z"/></g><path d="m47.9 415.6c0-.5-.2-1-.5-1.4.1-.5 0-1-.2-1.5l-5.3-13.8c0-.1 0-.2 0-.3l-.6-5.2h-10.5l-.7 5.2c0 .1 0 .1 0 .2l-4.8 13.4c-.2.4-.2.9-.2 1.3-.1.1-.3.2-.4.4l-10.1 11.4 4.7 3.9 10.1-11.4c.4-.5.6-1.1.6-1.6.7-.3 1.2-.9 1.5-1.7l4.3-12.1 4.9 12.8c.2.5.5.9.8 1.2l1.2 15.6 6.1-.5-.9-15.9z" fill="#6eaecc"/></g><path d="m14.9 427.1c.4-.4 1-.5 1.4-.1l3.9 8.9c.2.5.1.6-.3.2l-6.4-6c-.4-.4-.4-1-.1-1.4l1.5-1.6" fill="#494949"/><g stroke="#494949" stroke-width="2" stroke-miterlimit="10"><path d="m14.9 427.1c.4-.4 1-.5 1.4-.1l3.9 8.9c.2.5.1.6-.3.2l-6.4-6c-.4-.4-.4-1-.1-1.4l1.5-1.6z" fill="none"/><path d="m25.6 393.3c.8.4 1.1 1.4.7 2.2l-.8 1.5c0 0 0 0 0 .1.2.4.2 1 0 1.5l-.2 1c0 .2-.2.3-.4.3-.2 0-.3-.2-.3-.4l.2-1.3c0 0 0-.1 0-.1v.1l-1.1 2.6c-.1.2-.3.3-.5.2-.2-.1-.3-.3-.2-.5l.5-1.2c-.1 0-.2 0-.3 0l-.7 1.6c-.1.2-.3.3-.5.2-.2-.1-.3-.3-.2-.5l.6-1.4c-.1 0-.1 0-.2-.1l-.6 1.3c-.1.2-.3.2-.5.2-.2-.1-.2-.3-.2-.5l.7-1.5c-.1-.1-.1-.1-.1-.2l-.6 1.1c-.1.2-.3.2-.5.1-.2-.1-.2-.3-.1-.5l1.2-2.2c0 0 0 0 0-.1l.5-.9v-.1l1-1.9c.8-.7 1.8-1 2.6-.6z" fill="#fff4ca" stroke-linejoin="round" stroke-linecap="round"/><path d="m34.7 371.4c-.3-.6-.8-1-1.5-1.3-.6-.2-1.3-.2-1.9.1-.6.3-1 .8-1.3 1.5l-3.5 10.7c-.2.5-.2 1 0 1.5l-3.4 9.3c-.4 1 .2 2.2 1.2 2.6 1 .4 2.2-.2 2.6-1.2l3.4-9.2c.5-.3.9-.8 1.1-1.3l3.5-10.7c.2-.7.1-1.4-.2-2z" fill="#f78259"/></g><g fill="#494949"><path d="m42.8 359.8c0 0-2.9 1.8-6.1 2.1-3.2.2-1.5 4.7-3.5 4.9-2 .2-1.5-9.9 3.5-10.7 4.9-1 6.1 3.7 6.1 3.7"/><g opacity=".2"><path d="m43.6 432l.1 4.2c0 0 5.2.1 10.8.2.1-4.4-10.9-4.4-10.9-4.4"/><path d="m39 369.9c.2-.4.4-.7.4-.7h-.1c1.3-.5 2.3-1.6 2.3-2.9v-.3l.2-3.7c0-.6-.1-1.3-.3-1.8.7-.4 1.2-.7 1.2-.7s-.8-3.4-4.1-3.8c.2 3.3.4 8.2.4 13.9"/><path d="m19.4 429.1l10.1-11.4c.4-.5.6-1.1.6-1.6.7-.3 1.2-.9 1.5-1.7l4.3-12.1 4.9 12.8c.2.5.5.9.8 1.2l1.2 15.6 6.1-.5-1.2-15.9c0-.5-.2-1-.5-1.4.1-.5 0-1-.2-1.5l-5.3-13.8c0-.1 0-.2 0-.3l-.6-5.2h-.1c0-.1.1-.3.1-.4l.1-1.8 3.1 2.3c.3.2.7.4 1.1.4l1.4 1c0 0 0 0 0 0h.1l.8.6c0 0 0 0 0 0l2.1 1.4c.2.1.4.1.5-.1.1-.2.1-.4-.1-.5l-1-.7c.1 0 .2-.1.2-.1l1.4.9c.2.1.4.1.5-.1.1-.2.1-.4-.1-.5l-1.2-.8c0 0 0 0 0 0 0-.1.1-.1.1-.2l1.3.8c.2.1.4 0 .5-.1.1-.2 0-.4-.1-.5l-1.5-.9c0-.1 0-.2 0-.3l1.2.6c.2.1.4 0 .5-.1.1-.2 0-.4-.1-.5l-2.4-1.3h-.1c.1 0 .1 0 .1 0l1.5.6c.2 0 .4-.1.4-.3 0-.2-.1-.4-.2-.4l-1-.3c-.5-.2-1.1-.3-1.5-.1 0 0 0 0-.1 0l-.9-.6c-.1-.4-.4-.7-.7-.9l-5.1-3.9 1.1-13.5c.1-1.6-1.3-2.7-2.8-2.8h-1.2c-.2 17-2.9 40.4-15.7 45.5l-8.5 9.6 4.6 3.8"/><path d="m15.8 426.4l-2.7 3.1c0 0 3.8 3.6 7.9 7.3 2.9-3-5.2-10.4-5.2-10.4"/></g></g><g stroke="#494949"><g fill="none"><g stroke-linecap="round" stroke-width="2" stroke-miterlimit="10"><path d="m41.7 380.2h-2.5"/><path d="m41.9 383h-6"/></g><path d="m563.2 160c0 1.2-.8 2.1-1.7 2.1h-3.1c-.9 0-1.7-1-1.7-2.1v-9c0-1.2.8-2.1 1.7-2.1h3.1c.9 0 1.7 1 1.7 2.1v9z" stroke-width=".5"/></g><path d="m592.2 118.2c.1-.3.1-.6.2-1 .5-2.2.7-4.5.7-6.9 0-18.1-14.7-32.8-32.8-32.8-18.1 0-32.8 14.7-32.8 32.8 0 8.9 3.6 17 9.4 23 1.8 2 3.7 4 5.6 5.8 0 0 9.4 5.8 9.6 17 5.6-.4 11.2-.4 16.8 0 .3-11.3 9.2-17.1 9.2-17.1 2.2-1.9 4.3-4.1 6.2-6.4 2.7-2.9 4.9-6.3 6.4-10 .7-1.4 1.2-2.9 1.5-4.4z" fill="#f78259" stroke-width="3"/></g><ellipse cx="559.9" cy="160.3" rx=".9" ry=".7" fill="#fd9223"/><g stroke="#494949" stroke-linejoin="round" stroke-width=".5" stroke-miterlimit="10"><path d="m559.7 157.7c0 0 .5.7.4 1.2 0 0 .1-.3.3-.4-.1.3.2.9.2.9 1 1.1-.3 1.7-.3 1.7s.2-.4-.1-.7c-.3-.2-.3-.4-.3-.7 0 .2-.1.5-.3.7-.3.2-.1.7-.1.7s-1.3-.6-.3-1.7c.5-.6.6-1 .5-1.5v-.2z" fill="#fdeb00"/><path d="m559.1 162.6v-.8c0-.2.3-.3.5-.3h.7c.2 0 .2.1.2.3v.8h-1.4z" fill="#dcd6c6"/></g><g fill="#494949"><circle cx="559.4" cy="162.1" r=".1"/><circle cx="559.9" cy="162.1" r=".1"/><circle cx="560.5" cy="162.1" r=".1"/><path d="m559.2 169.2c0-.2-.4-.4-.4-.4h-.1c-.1-.1-.2-.1-.4-.1-.6 0-1.3-.4-1.3-.8 0-.1 0-.3 0-.5.1-.1.3-.2.4-.3h.8c0 0 0-2.1-.3-2.9-.8-1.7-2.7-1-3 .1-.2.8-.2 2.8-.2 2.8h.8c.1.1.2.2.3.2 0 .2 0 .4 0 .6 0 .1 0 .1-.1.2-.1.3-.7.4-1.1.5-.2 0-.3.1-.4.1h-.1c0 0-.3.1-.4.4 0 0-.1.8 0 1.8h5.3c.2-.9.2-1.7.2-1.7"/></g><g stroke="#494949"><path d="m569.5 170.6v13c0 1.3-1.1 2.4-2.4 2.4h-13.6c-1.3 0-2.4-1.1-2.4-2.4v-13h18.4z" fill="#ce9b66" stroke-width="2"/><path d="m569.3 171.9c0 .9-1 1.5-2.3 1.5-1.2 0-2.2.1-2.2-1.9 0 2-1 1.7-2.2 1.7-1.2 0-2.2.3-2.2-1.7 0 2-1 1.9-2.2 1.9-1.2 0-2.2-.7-2.2-1.6v.1c0 .9-1 1.7-2.2 1.7-1.2 0-2.2-.7-2.2-1.7" stroke-dasharray="1" fill="none" stroke-linejoin="round" stroke-linecap="round" stroke-miterlimit="10"/></g><path d="m566 150.8c1.4-7.6 5.3-11.5 5.3-11.5 1.4-1.9 2.7-4 3.9-6.2 1.7-2.8 3.1-6.1 4.1-9.8.4-1.5.7-3 .9-4.4.1-.3.1-.6.1-.9.3-2.2.5-4.4.5-6.8 0-17.7-9.3-32.1-20.9-32.1-11.5 0-20.9 14.4-20.9 32.1 0 8.8 2.3 16.7 6 22.5 1.1 2 2.3 3.9 3.6 5.6 0 0 4.1 3.9 5.6 11.5" fill="#fff"/><path d="m561.9 150.8c.5-7.6 1.7-11.5 1.7-11.5.5-1.9.9-4 1.3-6.2.6-2.8 1-6.1 1.3-9.8.1-1.5.2-3 .3-4.4 0-.3 0-.6 0-.9.1-2.2.2-4.4.2-6.8 0-17.7-3-32-6.8-32-3.7 0-6.8 14.3-6.8 32 0 8.7.7 16.7 1.9 22.5.4 2 .8 3.9 1.2 5.6 0 0 1.3 3.9 1.8 11.5" fill="#f78259"/><g fill="none"><g stroke="#494949" stroke-width="2"><path d="m568.5 156.2c0 0-.8 7.8.7 14.4"/><path d="m552.7 156.2c0 0 .5 7.8-1 14.4"/><path d="m551.5 151.1c6-.4 12.1-.4 18.1 0"/></g><g opacity=".1" stroke="#000" stroke-linecap="round" stroke-width=".1"><path d="m555.3 173.1l.7-.7"/><path d="m555.1 172.9l.7-.8"/><path d="m554.9 172.7l.7-.8"/><path d="m558.3 173.1l.7-.7"/><path d="m558.1 172.9l.7-.8"/><path d="m557.9 172.7l.7-.8"/><path d="m552.3 173.1l.7-.7"/><path d="m552.1 172.9l.7-.8"/><path d="m551.8 172.7l.8-.8"/><path d="m564.3 173.1l.8-.7"/><path d="m564.1 172.9l.7-.8"/><path d="m563.9 172.7l.7-.8"/><path d="m567.4 173.1l.7-.7"/><path d="m567.1 172.9l.8-.8"/><path d="m566.9 172.7l.7-.8"/><path d="m561.3 173.1l.7-.7"/><path d="m561.1 172.9l.7-.8"/><path d="m560.9 172.7l.7-.8"/><path d="m556.8 171.9l.7.8"/><path d="m556.6 172.1l.7.8"/><path d="m556.4 172.4l.7.7"/><path d="m559.8 171.9l.7.8"/><path d="m559.6 172.1l.7.8"/><path d="m559.4 172.4l.7.7"/><path d="m553.8 171.9l.7.8"/><path d="m553.6 172.1l.7.8"/><path d="m553.3 172.4l.8.7"/><path d="m565.8 171.9l.8.8"/><path d="m565.6 172.1l.8.8"/><path d="m565.4 172.4l.7.7"/><path d="m568.9 171.9l.7.8"/><path d="m568.6 172.1l.8.8"/><path d="m568.4 172.4l.7.7"/><path d="m562.8 171.9l.8.8"/><path d="m562.6 172.1l.7.8"/><path d="m562.4 172.4l.7.7"/><path d="m554.6 174.2l.7-.7"/><path d="m554.4 174l.7-.7"/><path d="m554.2 173.8l.7-.7"/><path d="m557.6 174.2l.8-.7"/><path d="m557.4 174l.7-.7"/><path d="m557.2 173.8l.7-.7"/><path d="m551.6 174.2l.7-.7"/><path d="m551.4 174l.7-.7"/><path d="m551.2 173.8l.7-.7"/><path d="m563.7 174.2l.7-.7"/><path d="m563.5 174l.7-.7"/><path d="m563.2 173.8l.8-.7"/><path d="m566.7 174.2l.7-.7"/><path d="m566.5 174l.7-.7"/><path d="m566.2 173.8l.8-.7"/><path d="m560.7 174.2l.7-.7"/><path d="m560.4 174l.8-.7"/><path d="m560.2 173.8l.7-.7"/><path d="m556.1 173.1l.8.7"/><path d="m555.9 173.3l.7.7"/><path d="m555.7 173.5l.7.7"/><path d="m559.1 173.1l.8.7"/><path d="m558.9 173.3l.8.7"/><path d="m558.7 173.5l.7.7"/><path d="m553.1 173.1l.7.7"/><path d="m552.9 173.3l.7.7"/><path d="m552.7 173.5l.7.7"/><path d="m565.2 173.1l.7.7"/><path d="m565 173.3l.7.7"/><path d="m564.7 173.5l.8.7"/><path d="m568.2 173.1l.7.7"/><path d="m568 173.3l.7.7"/><path d="m567.8 173.5l.7.7"/><path d="m562.2 173.1l.7.7"/><path d="m561.9 173.3l.8.7"/><path d="m561.7 173.5l.7.7"/><path d="m555.3 175.3l.7-.7"/><path d="m555.1 175.1l.7-.7"/><path d="m554.9 174.9l.7-.8"/><path d="m558.3 175.3l.7-.7"/><path d="m558.1 175.1l.7-.7"/><path d="m557.9 174.9l.7-.8"/><path d="m552.3 175.3l.7-.7"/><path d="m552.1 175.1l.7-.7"/><path d="m551.8 174.9l.8-.8"/><path d="m564.3 175.3l.8-.7"/><path d="m564.1 175.1l.7-.7"/><path d="m563.9 174.9l.7-.8"/><path d="m567.4 175.3l.7-.7"/><path d="m567.1 175.1l.8-.7"/><path d="m566.9 174.9l.7-.8"/><path d="m561.3 175.3l.7-.7"/><path d="m561.1 175.1l.7-.7"/><path d="m560.9 174.9l.7-.8"/><path d="m556.8 174.1l.7.8"/><path d="m556.6 174.4l.7.7"/><path d="m556.4 174.6l.7.7"/><path d="m559.8 174.1l.7.8"/><path d="m559.6 174.4l.7.7"/><path d="m559.4 174.6l.7.7"/><path d="m553.8 174.1l.7.8"/><path d="m553.6 174.4l.7.7"/><path d="m553.3 174.6l.8.7"/><path d="m565.8 174.1l.8.8"/><path d="m565.6 174.4l.8.7"/><path d="m565.4 174.6l.7.7"/><path d="m568.9 174.1l.7.8"/><path d="m568.6 174.4l.8.7"/><path d="m568.4 174.6l.7.7"/><path d="m562.8 174.1l.8.8"/><path d="m562.6 174.4l.7.7"/><path d="m562.4 174.6l.7.7"/><path d="m554.6 176.4l.7-.7"/><path d="m554.4 176.2l.7-.7"/><path d="m554.2 176l.7-.7"/><path d="m557.6 176.4l.8-.7"/><path d="m557.4 176.2l.7-.7"/><path d="m557.2 176l.7-.7"/><path d="m551.6 176.4l.7-.7"/><path d="m551.4 176.2l.7-.7"/><path d="m551.2 176l.7-.7"/><path d="m563.7 176.4l.7-.7"/><path d="m563.5 176.2l.7-.7"/><path d="m563.2 176l.8-.7"/><path d="m566.7 176.4l.7-.7"/><path d="m566.5 176.2l.7-.7"/><path d="m566.2 176l.8-.7"/><path d="m560.7 176.4l.7-.7"/><path d="m560.4 176.2l.8-.7"/><path d="m560.2 176l.7-.7"/><path d="m556.1 175.3l.8.7"/><path d="m555.9 175.5l.7.7"/><path d="m555.7 175.7l.7.7"/><path d="m559.1 175.3l.8.7"/><path d="m558.9 175.5l.8.7"/><path d="m558.7 175.7l.7.7"/><path d="m553.1 175.3l.7.7"/><path d="m552.9 175.5l.7.7"/><path d="m552.7 175.7l.7.7"/><path d="m565.2 175.3l.7.7"/><path d="m565 175.5l.7.7"/><path d="m564.7 175.7l.8.7"/><path d="m568.2 175.3l.7.7"/><path d="m568 175.5l.7.7"/><path d="m567.8 175.7l.7.7"/><path d="m562.2 175.3l.7.7"/><path d="m561.9 175.5l.8.7"/><path d="m561.7 175.7l.7.7"/></g><g stroke="#000" stroke-linecap="round" stroke-width=".1"><g opacity=".1"><path d="m555.3 177.5l.7-.8"/><path d="m555.1 177.2l.7-.7"/><path d="m554.9 177l.7-.7"/><path d="m558.3 177.5l.7-.8"/><path d="m558.1 177.2l.7-.7"/><path d="m557.9 177l.7-.7"/><path d="m552.3 177.5l.7-.8"/><path d="m552.1 177.2l.7-.7"/><path d="m551.8 177l.8-.7"/><path d="m564.3 177.5l.8-.8"/><path d="m564.1 177.2l.7-.7"/><path d="m563.9 177l.7-.7"/><path d="m567.4 177.5l.7-.8"/><path d="m567.1 177.2l.8-.7"/><path d="m566.9 177l.7-.7"/><path d="m561.3 177.5l.7-.8"/><path d="m561.1 177.2l.7-.7"/><path d="m560.9 177l.7-.7"/><path d="m556.8 176.3l.7.7"/><path d="m556.6 176.5l.7.7"/><path d="m556.4 176.7l.7.8"/><path d="m559.8 176.3l.7.7"/><path d="m559.6 176.5l.7.7"/><path d="m559.4 176.7l.7.8"/><path d="m553.8 176.3l.7.7"/><path d="m553.6 176.5l.7.7"/><path d="m553.3 176.7l.8.8"/><path d="m565.8 176.3l.8.7"/><path d="m565.6 176.5l.8.7"/><path d="m565.4 176.7l.7.8"/><path d="m568.9 176.3l.7.7"/><path d="m568.6 176.5l.8.7"/><path d="m568.4 176.7l.7.8"/><path d="m562.8 176.3l.8.7"/><path d="m562.6 176.5l.7.7"/><path d="m562.4 176.7l.7.8"/><path d="m554.6 178.6l.7-.7"/><path d="m554.4 178.4l.7-.8"/><path d="m554.2 178.1l.7-.7"/><path d="m557.6 178.6l.8-.7"/><path d="m557.4 178.4l.7-.8"/><path d="m557.2 178.1l.7-.7"/><path d="m551.6 178.6l.7-.7"/><path d="m551.4 178.4l.7-.8"/><path d="m551.2 178.1l.7-.7"/><path d="m563.7 178.6l.7-.7"/><path d="m563.5 178.4l.7-.8"/><path d="m563.2 178.1l.8-.7"/><path d="m566.7 178.6l.7-.7"/><path d="m566.5 178.4l.7-.8"/><path d="m566.2 178.1l.8-.7"/><path d="m560.7 178.6l.7-.7"/><path d="m560.4 178.4l.8-.8"/><path d="m560.2 178.1l.7-.7"/><path d="m556.1 177.4l.8.7"/><path d="m555.9 177.6l.7.8"/><path d="m555.7 177.9l.7.7"/><path d="m559.1 177.4l.8.7"/><path d="m558.9 177.6l.8.8"/><path d="m558.7 177.9l.7.7"/><path d="m553.1 177.4l.7.7"/><path d="m552.9 177.6l.7.8"/><path d="m552.7 177.9l.7.7"/><path d="m565.2 177.4l.7.7"/><path d="m565 177.6l.7.8"/><path d="m564.7 177.9l.8.7"/><path d="m568.2 177.4l.7.7"/><path d="m568 177.6l.7.8"/><path d="m567.8 177.9l.7.7"/><path d="m562.2 177.4l.7.7"/><path d="m561.9 177.6l.8.8"/><path d="m561.7 177.9l.7.7"/><path d="m555.3 179.7l.7-.8"/><path d="m555.1 179.4l.7-.7"/><path d="m554.9 179.2l.7-.7"/><path d="m558.3 179.7l.7-.8"/><path d="m558.1 179.4l.7-.7"/><path d="m557.9 179.2l.7-.7"/><path d="m552.3 179.7l.7-.8"/><path d="m552.1 179.4l.7-.7"/><path d="m551.8 179.2l.8-.7"/><path d="m564.3 179.7l.8-.8"/><path d="m564.1 179.4l.7-.7"/><path d="m563.9 179.2l.7-.7"/><path d="m567.4 179.7l.7-.8"/><path d="m567.1 179.4l.8-.7"/><path d="m566.9 179.2l.7-.7"/><path d="m561.3 179.7l.7-.8"/><path d="m561.1 179.4l.7-.7"/><path d="m560.9 179.2l.7-.7"/><path d="m556.8 178.5l.7.7"/><path d="m556.6 178.7l.7.7"/><path d="m556.4 178.9l.7.8"/><path d="m559.8 178.5l.7.7"/><path d="m559.6 178.7l.7.7"/><path d="m559.4 178.9l.7.8"/><path d="m553.8 178.5l.7.7"/><path d="m553.6 178.7l.7.7"/><path d="m553.3 178.9l.8.8"/><path d="m565.8 178.5l.8.7"/><path d="m565.6 178.7l.8.7"/><path d="m565.4 178.9l.7.8"/><path d="m568.9 178.5l.7.7"/><path d="m568.6 178.7l.8.7"/><path d="m568.4 178.9l.7.8"/><path d="m562.8 178.5l.8.7"/><path d="m562.6 178.7l.7.7"/><path d="m562.4 178.9l.7.8"/><path d="m554.6 180.8l.7-.7"/><path d="m554.4 180.6l.7-.8"/><path d="m554.2 180.4l.7-.8"/><path d="m557.6 180.8l.8-.7"/><path d="m557.4 180.6l.7-.8"/><path d="m557.2 180.4l.7-.8"/><path d="m551.6 180.8l.7-.7"/><path d="m551.4 180.6l.7-.8"/><path d="m551.2 180.4l.7-.8"/><path d="m563.7 180.8l.7-.7"/><path d="m563.5 180.6l.7-.8"/><path d="m563.2 180.4l.8-.8"/><path d="m566.7 180.8l.7-.7"/><path d="m566.5 180.6l.7-.8"/><path d="m566.2 180.4l.8-.8"/><path d="m560.7 180.8l.7-.7"/><path d="m560.4 180.6l.8-.8"/><path d="m560.2 180.4l.7-.8"/><path d="m556.1 179.6l.8.8"/><path d="m555.9 179.8l.7.8"/><path d="m555.7 180.1l.7.7"/><path d="m559.1 179.6l.8.8"/><path d="m558.9 179.8l.8.8"/><path d="m558.7 180.1l.7.7"/><path d="m553.1 179.6l.7.8"/><path d="m552.9 179.8l.7.8"/><path d="m552.7 180.1l.7.7"/><path d="m565.2 179.6l.7.8"/><path d="m565 179.8l.7.8"/><path d="m564.7 180.1l.8.7"/><path d="m568.2 179.6l.7.8"/><path d="m568 179.8l.7.8"/><path d="m567.8 180.1l.7.7"/><path d="m562.2 179.6l.7.8"/><path d="m561.9 179.8l.8.8"/><path d="m561.7 180.1l.7.7"/></g><g opacity=".1"><path d="m555.3 182l.7-.8"/><path d="m555.1 181.8l.7-.8"/><path d="m554.9 181.5l.7-.7"/><path d="m558.3 182l.7-.8"/><path d="m558.1 181.8l.7-.8"/><path d="m557.9 181.5l.7-.7"/><path d="m552.3 182l.7-.8"/><path d="m552.1 181.8l.7-.8"/><path d="m551.8 181.5l.8-.7"/><path d="m564.3 182l.8-.8"/><path d="m564.1 181.8l.7-.8"/><path d="m563.9 181.5l.7-.7"/><path d="m567.4 182l.7-.8"/><path d="m567.1 181.8l.8-.8"/><path d="m566.9 181.5l.7-.7"/><path d="m561.3 182l.7-.8"/><path d="m561.1 181.8l.7-.8"/><path d="m560.9 181.5l.7-.7"/><path d="m556.8 180.8l.7.7"/><path d="m556.6 181l.7.8"/><path d="m556.4 181.2l.7.8"/><path d="m559.8 180.8l.7.7"/><path d="m559.6 181l.7.8"/><path d="m559.4 181.2l.7.8"/><path d="m553.8 180.8l.7.7"/><path d="m553.6 181l.7.8"/><path d="m553.3 181.2l.8.8"/><path d="m565.8 180.8l.8.7"/><path d="m565.6 181l.8.8"/><path d="m565.4 181.2l.7.8"/><path d="m568.9 180.8l.7.7"/><path d="m568.6 181l.8.8"/><path d="m568.4 181.2l.7.8"/><path d="m562.8 180.8l.8.7"/><path d="m562.6 181l.7.8"/><path d="m562.4 181.2l.7.8"/><path d="m554.6 183.1l.7-.7"/><path d="m554.4 182.9l.7-.7"/><path d="m554.2 182.7l.7-.8"/><path d="m557.6 183.1l.8-.7"/><path d="m557.4 182.9l.7-.7"/><path d="m557.2 182.7l.7-.8"/><path d="m551.6 183.1l.7-.7"/><path d="m551.4 182.9l.7-.7"/><path d="m551.2 182.7l.7-.8"/><path d="m563.7 183.1l.7-.7"/><path d="m563.5 182.9l.7-.7"/><path d="m563.2 182.7l.8-.8"/><path d="m566.7 183.1l.7-.7"/><path d="m566.5 182.9l.7-.7"/><path d="m566.2 182.7l.8-.8"/><path d="m560.7 183.1l.7-.7"/><path d="m560.4 182.9l.8-.7"/><path d="m560.2 182.7l.7-.8"/><path d="m556.1 181.9l.8.8"/><path d="m555.9 182.2l.7.7"/><path d="m555.7 182.4l.7.7"/><path d="m559.1 181.9l.8.8"/><path d="m558.9 182.2l.8.7"/><path d="m558.7 182.4l.7.7"/><path d="m553.1 181.9l.7.8"/><path d="m552.9 182.2l.7.7"/><path d="m552.7 182.4l.7.7"/><path d="m565.2 181.9l.7.8"/><path d="m565 182.2l.7.7"/><path d="m564.7 182.4l.8.7"/><path d="m568.2 181.9l.7.8"/><path d="m568 182.2l.7.7"/><path d="m567.8 182.4l.7.7"/><path d="m562.2 181.9l.7.8"/><path d="m561.9 182.2l.8.7"/><path d="m561.7 182.4l.7.7"/><path d="m555.3 184.2l.7-.7"/><path d="m555.1 184l.7-.8"/><path d="m554.9 183.7l.7-.7"/><path d="m558.3 184.2l.7-.7"/><path d="m558.1 184l.7-.8"/><path d="m557.9 183.7l.7-.7"/><path d="m552.3 184.2l.7-.7"/><path d="m552.1 184l.7-.8"/><path d="m551.8 183.7l.8-.7"/><path d="m564.3 184.2l.8-.7"/><path d="m564.1 184l.7-.8"/><path d="m563.9 183.7l.7-.7"/><path d="m567.4 184.2l.7-.7"/><path d="m567.1 184l.8-.8"/><path d="m566.9 183.7l.7-.7"/><path d="m561.3 184.2l.7-.7"/><path d="m561.1 184l.7-.8"/><path d="m560.9 183.7l.7-.7"/><path d="m556.8 183l.7.7"/><path d="m556.6 183.2l.7.8"/><path d="m556.4 183.5l.7.7"/><path d="m559.8 183l.7.7"/><path d="m559.6 183.2l.7.8"/><path d="m559.4 183.5l.7.7"/><path d="m553.8 183l.7.7"/><path d="m553.6 183.2l.7.8"/><path d="m553.3 183.5l.8.7"/><path d="m565.8 183l.8.7"/><path d="m565.6 183.2l.8.8"/><path d="m565.4 183.5l.7.7"/><path d="m568.9 183l.7.7"/><path d="m568.6 183.2l.8.8"/><path d="m568.4 183.5l.7.7"/><path d="m562.8 183l.8.7"/><path d="m562.6 183.2l.7.8"/><path d="m562.4 183.5l.7.7"/><path d="m554.6 185.3l.7-.7"/><path d="m554.4 185.1l.7-.7"/><path d="m554.2 184.9l.7-.8"/><path d="m557.6 185.3l.8-.7"/><path d="m557.4 185.1l.7-.7"/><path d="m557.2 184.9l.7-.8"/><path d="m551.6 185.3l.7-.7"/><path d="m551.4 185.1l.7-.7"/><path d="m551.2 184.9l.7-.8"/><path d="m563.7 185.3l.7-.7"/><path d="m563.5 185.1l.7-.7"/><path d="m563.2 184.9l.8-.8"/><path d="m566.7 185.3l.7-.7"/><path d="m566.5 185.1l.7-.7"/><path d="m566.2 184.9l.8-.8"/><path d="m560.7 185.3l.7-.7"/><path d="m560.4 185.1l.8-.7"/><path d="m560.2 184.9l.7-.8"/><path d="m556.1 184.1l.8.8"/><path d="m555.9 184.4l.7.7"/><path d="m555.7 184.6l.7.7"/><path d="m559.1 184.1l.8.8"/><path d="m558.9 184.4l.8.7"/><path d="m558.7 184.6l.7.7"/><path d="m553.1 184.1l.7.8"/><path d="m552.9 184.4l.7.7"/><path d="m552.7 184.6l.7.7"/><path d="m565.2 184.1l.7.8"/><path d="m565 184.4l.7.7"/><path d="m564.7 184.6l.8.7"/><path d="m568.2 184.1l.7.8"/><path d="m568 184.4l.7.7"/><path d="m567.8 184.6l.7.7"/><path d="m562.2 184.1l.7.8"/><path d="m561.9 184.4l.8.7"/><path d="m561.7 184.6l.7.7"/></g></g></g><g fill="#494949"><path d="m566.7 168.5c-.3-.2-.4-.2-.9-.2-.8 0-1.1-.3-1.2-.7 0 0 0 0 0-.1 0-.2-.1-.5 0-.7.3-.2.4-.5.4-.9v.1-1.2c0-.1.1-.1.1-.2 0 0 .1 0 .1 0h.1c.2-.2-.1-.8-.1-.9-.1-.1-.3-.1-.3-.1l.1-.1-.1.1v-.2c0 0 0 0 0 .1 0 0 0 .1-.1.1l-.1-.1c0 0-.1-.1-.3-.2-.8-.3-1.4.5-1.6.6-.1.1-.4-.1-.4-.1s-.1.2.2.4c-.1.2-.5.5-.5.7v1.2.1c0 .4.5.7.8.9 0 .2.1.5.1.7 0 0 .1 0 .1 0 0 0-.3.7-1.1.7-.4 0-.5-.1-.9.1-.3.2-.3 2.5-.4 2.5h6.5c-.2-.1-.2-2.4-.5-2.6"/><g opacity=".2"><path d="m563.2 160v-4.2c1.9 0 3.8.1 5.8.3.3-11.3 9.2-17.1 9.2-17.1 2.2-1.9 4.3-4.1 6.2-6.4 2.7-2.9 4.9-6.3 6.4-10 .7-1.5 1.2-3 1.5-4.5.1-.3.1-.6.2-1 .5-2.2.7-4.5.7-6.9 0-17.5-13.6-31.7-30.9-32.7 3.5 23 6.1 56.2-1.5 84.5h.7c1 .2 1.7-.8 1.7-2"/><path d="m553.5 185.9h13.6c1.3 0 2.4-1.1 2.4-2.4v-13h-.3-2.2c0-.7-.1-1.9-.3-2.1-.3-.2-.4-.2-.9-.2-.8 0-1.1-.3-1.2-.7 0 0 0 0 0-.1 0-.2-.1-.5 0-.7.3-.2.4-.5.4-.9v.2-1.2c0-.1.1-.1.1-.2 0 0 .1 0 .1 0h.1c.2-.2-.1-.8-.1-.9-.1-.1-.3-.1-.3-.1l.1-.1-.1.1v-.2c0 0 0 0 0 .1 0 0 0 .1-.1.1l-.1-.1c0 0-.1-.1-.3-.2-.8-.3-1.4.5-1.6.6-.1.1-.4-.1-.4-.1s-.1.2.2.4c-.1.2-.5.5-.5.7v1.2.1c0 .4.5.7.8.9 0 .2.1.5.1.7 0 0 .1 0 .1 0 0 0-.3.7-1.1.7-.4 0-.5-.1-.9.1-.2.2-.3 1.4-.3 2.1h-1.5c0-.8 0-1.4 0-1.4 0-.2-.3-.4-.4-.4-1.9 5.7-4.3 11.1-7.2 16.1.3.5 1 .9 1.8.9"/></g></g><g fill="#fff4ca" stroke="#494949" stroke-linejoin="round" stroke-width="2" stroke-miterlimit="10"><g stroke-linecap="round"><path d="m184.4 362.1c-.6-.4-1.3-.5-2-.4-.7.1-1.3.5-1.7 1.1l-6.4 9.8c-.4.5-.5 1.2-.4 1.8l-3.3 9.4c0 .1 0 .1-.1.2-.1.2-.2.4-.2.6l-.5 2.7c0 0 0 0 0 0v.1l-.2 1.3c0 0 0 0 0 .1l-.6 3.1c0 .2.1.5.4.5.2 0 .5-.1.5-.4l.3-1.5c.1.1.2.2.2.2l-.3 2.1c0 .2.1.5.4.5.2 0 .5-.1.5-.4l.3-1.8c0 0 0 0 0 0 .1 0 .2 0 .2 0l-.3 2c0 .2.1.5.4.5.2 0 .5-.1.5-.4l.3-2.2c.1 0 .2-.1.3-.2l-.2 1.7c0 .2.2.5.4.5.2 0 .5-.2.5-.4l.4-3.5v-.1c0 .1.1.1.1.1l.2 1.6c0 .2.3.4.5.4.2 0 .4-.3.4-.5l-.2-1.3c0-.7-.2-1.4-.6-1.9 0 0-.1 0-.1-.1l.4-2.1c0-.1 0-.1 0-.2 0 0 0-.1 0-.1l3.1-8.8c.4-.2.8-.5 1.1-.9l6.4-9.8c.4-.6.5-1.3.4-2-.1-.3-.5-.9-1.1-1.3z"/><path d="m207.4 372.2l-7-9.4c-.4-.6-1-.9-1.7-1-.7-.1-1.4.1-1.9.5-.6.4-.9 1-1 1.7-.1.7.1 1.4.5 1.9l7 9.4c.1.1.2.2.3.3l-1.1 8.4c0 .1 0 .2 0 .3 0 .1 0 .1 0 .2l-.3 2c0 0-.1 0-.1 0-.5.2-.9.9-1.2 1.5l-.6 1.1c-.1.2 0 .5.2.6.2.1.5 0 .6-.2l.7-1.4c0 0 .1-.1.1-.1v.1l-.8 3.3c-.1.2.1.5.3.5.2.1.5-.1.5-.3l.4-1.6c.1.1.2.2.2.2l-.5 2.1c-.1.2.1.5.3.5.2.1.5-.1.5-.3l.4-1.8c.1 0 .1 0 .2 0l-.3 1.7c0 .2.1.5.3.5.2 0 .5-.1.5-.3l.4-2c.1 0 .2-.1.3-.1l-.2 1.5c0 .2.1.5.4.5.2 0 .4-.1.5-.4l.5-3c0 0 0 0 0-.1l.2-1.2v-.1c0 0 0 0 0 0l.4-2.6c.1-.2.2-.4.2-.6l1.4-10.5c0-.1 0-.2 0-.3 0-.4-.2-1-.6-1.5z"/></g><path d="m190.4 348.1c-2.3 0-4.2 2-4.2 4.4v3.9.3c0 1.2.7 2.2 1.7 2.8h-.2c0 0 .3 1.1 0 2.1 1.1.7 3.2 1.7 5-.2-.1-1 .3-1.9.3-1.9h-.2c1-.6 1.7-1.7 1.7-2.8v-.3-3.9c.1-2.4-1.8-4.4-4.1-4.4z"/></g><path d="m194.5 356.7c0 2-1.8 2.5-4.1 2.5-2.3 0-4.1-.5-4.1-2.5v-.3-3.9c0-2.4 1.8-4.4 4.1-4.4 2.3 0 4.1 2 4.1 4.4v3.9.3" fill="#494949"/><g stroke="#494949" stroke-width="2" stroke-miterlimit="10"><path d="m204.5 368.3l-4-5.4c-.4-.6-1-.9-1.7-1-.3 0-.5 0-.8 0-.3-.1-.6-.2-1-.2h-13.6c-.1 0-.2 0-.3 0-.2 0-.4 0-.6 0-.7.1-1.3.5-1.7 1.1l-3.5 5.4 3.8 2.1 1.4 15.1c0 1.6 1.3 2.9 2.9 2.9h9.6c1.6 0 2.9-1.3 2.9-2.9l1.5-15.4 1 1.4 4.1-3.1z" fill="#fff"/><path d="m182.6 431.6c0-13.6-.4-38.5-.3-39.6l.9-5.2h14.2l.8 5.7c0 1.4-.3 33.8-.3 38.9h-4.4l-1.8-33.9h-3.2l-1.5 34.2h-4.4z" fill="#fff4ca" stroke-linejoin="round" stroke-linecap="round"/><path d="m198.8 392.5l-.9-6.3h-15.3l-.9 5.8c-.1.3-.1 14.3-.1 14.3h7l.7-8.1h1.9l.7 7.9h7c-.2-.1-.1-13.2-.1-13.6z" fill="#3f99c2"/><g fill="#68664c"><path d="m187.4 434.6v-6.3h-5.3v6.4"/><path d="m198.2 434.4v-5.9h-5.5v5.9"/></g><g fill="none" stroke-linecap="round"><path d="m197.6 380.9h-7.9"/><path d="m197.6 377.7h-3.6"/></g><g fill="#9e7e60"><path d="m225.1 397.4c0-1.2-1-2.2-2.2-2.2h-.1c-1.2 0-2.2 1-2.2 2.2v13.5c0 .4.1.8.3 1.2v13.2c0 1 .8 1.9 1.9 1.9h.1c1 0 1.9-.9 1.9-1.9v-13.2c.2-.3.3-.7.3-1.2v-13.5z"/><path d="m220.5 425.2v5.6c-.7.5-1.1 1.2-1.1 2.1h6.9c0-.9-.5-1.7-1.2-2.1v-5.5h-4.6z"/><path d="m219 433.1h7.8v1.1h-7.8z"/><path d="m233.7 397.2c0-1.2-1-2.2-2.2-2.2h-.1c-1.2 0-2.2 1-2.2 2.2v13.5c0 .4.1.8.3 1.2v13.1c0 1 .8 1.9 1.9 1.9h.1c1 0 1.9-.8 1.9-1.9v-13.2c.2-.3.3-.8.3-1.2v-13.4z"/><path d="m229.1 425v5.6c-.7.5-1.1 1.2-1.1 2.1h6.9c0-.9-.5-1.7-1.2-2.1v-5.6h-4.6z"/><path d="m227.5 432.9h7.8v1.1h-7.8z"/></g><g fill="#f6b641"><path d="M221 380.5l-2.9-14.1c0-1.3 1.1-2.4 2.4-2.4h12.3c1.3 0 2.4 1.1 2.4 2.4l-2.9 14.1H221z"/><path d="m232.4 380.4l2.7 7.1.6 10.4h-17.9l.7-10.4 2.6-7.1z"/></g><path d="m231.4 364.1c-1.7-.1-2.5-.5-2.6-1.3 0-.2 0-.1 0-.3 0-.7.3-1.5.3-1.5h-4c0 0 .2.8.1 1.5 0 .2-.1.4-.2.6-.3.6-1 .8-2.2.9 1.1.9 2.7 1.5 4.4 1.5 1.6 0 3.1-.5 4.2-1.4z" fill="#9e7e60"/><path d="m230.7 358.1c0 1.7-1.6 3-3.5 3-2 0-3.5-1.3-3.5-3v-.2-3.3c0-2.1 1.6-3.7 3.5-3.7 2 0 3.5 1.7 3.5 3.7v3.3.2z" fill="#fff4ca"/><g fill="#9e7e60"><path d="m247.8 352.4c-.2 0-.3.1-.3.2l-.2 1c-.1-.1-.1-.1-.2-.1l.2-1.4c0-.2-.1-.3-.2-.3-.2 0-.3.1-.3.2l-.2 1.2c0 0 0 0 0 0-.1 0-.1 0-.2 0l.2-1.3c0-.2-.1-.3-.3-.3-.2 0-.3.1-.3.3l-.2 1.5c-.1 0-.1.1-.2.1l.1-1.1c0-.2-.1-.3-.3-.3-.2 0-.3.1-.3.3l-.3 2.3v.1c0 0 0-.1-.1-.1l-.1-1.1c0-.2-.2-.3-.3-.2-.2 0-.3.2-.3.3l.1.9c0 .4.1 1 .4 1.2l-.3 1.4c0 .1 0 .2 0 .3 0 .1-.1.2-.1.3l-1.3 8.3-8.9-1.3c-.4-.1-.8 0-1.2.3-.3.3-.6.6-.6 1 0 .3 0 .5.1.8.1.1.1.3.2.4.3.3.6.6 1 .6l10 1.5c.1 0 .1.1.2.1.4.1.7 0 1-.2.2-.2.4-.4.4-.6.1-.2.2-.3.2-.5 0-.1 0-.2 0-.4l1.4-9.4c.1-.1.2-.3.2-.5l.4-1.8c0 0 0 0 0 0v-.1l.2-.8c0 0 0 0 0 0l.4-2.1c.2-.5.1-.7 0-.7z"/><path d="m220.2 366.6c.2-.4.2-.8.1-1.2-.1-.4-.4-.7-.8-.9-.2-.1-.5-.2-.8-.2-.1 0-.3 0-.4.1-.4.1-.7.4-.9.8l-4.6 9.1c-.2.4-.2.8-.1 1.2 0 0 0 0 0 .1l.6 9.9c0 .1 0 .2.1.3 0 0 0 0 0 .1v1.8.1.9c0 0 0 0 0 0l.1 2.1c0 .2.1.3.3.3.2 0 .3-.1.3-.3v-1c.1 0 .1.1.2.1l.1 1.4c0 .2.1.3.3.3.2 0 .3-.1.3-.3l-.1-1.2c0 0 0 0 0 0 .1 0 .1 0 .2 0l.1 1.3c0 .2.2.3.3.3.2 0 .3-.2.3-.3l-.1-1.5c.1 0 .1-.1.2-.1l.1 1.1c0 .2.2.3.3.3.2 0 .3-.2.3-.3l-.3-2.3v-.1c0 0 .1.1.1.1l.3 1c.1.2.2.2.4.2.2-.1.2-.2.2-.4l-.3-.8c-.1-.4-.3-.9-.7-1.1 0 0 0 0-.1 0v-1.4c0-.2-.1-.4-.2-.6l-.5-9.3c0-.1.1-.1.1-.2l4.6-9.4z"/></g></g><path d="m227.1 362.2l5.1.1c0 0 .2-8.8-.7-11-2.3-5.1-7.9-3.1-8.8.3-.6 2.3-.6 10.7-.6 10.7l5-.1" fill="#494949"/><g stroke="#494949" stroke-linecap="round" stroke-width="2" stroke-miterlimit="10"><g fill="none"><path d="m247.8 351.2c0 0 66.5-19.2 64.7-99.3"/><path d="m314.2 256.8l7.2 7.2c3.9 3.9 10.3 3.9 14.1 0l2.6-2.6c3.9-3.9 10.2-3.9 14.1-.1 3.8 3.8 7 7 7 7"/></g><g fill="#f78259"><path d="m315.3 267.3l6.6-2.9-2.9 6.5z"/><path d="m328.4 261.5l-6.6 2.9 3-6.5z"/><path d="m348.2 267l6.5-3-2.9 6.6z"/><path d="m361.3 261.2l-6.6 2.9 2.9-6.6z"/></g><g fill="#fff"><path d="m336.1 267.7l2.5-6.7 2.6 6.7z"/><path d="m341.2 254.4l-2.6 6.6-2.5-6.6z"/></g></g><g fill="#494949"><path d="m182.1 428.3v6.2c0 0-.3.2.3.2h4.4c.6 0 .5-.2.5-.2v-6.2h-.3l1-22h.4l.7-8.1h1.9l.7 7.9h.4l1.2 22.5h-.5v5.7c0 0-.2.2.4.2h4.4c.6 0 .7-.2.7-.2v-5.7h-.4c0-5 .1-14.5.2-22.5h.7c0 0 .1-13.2.1-13.6l-.9-6.3h-.2c.1-.2.1-.5.1-.7l1.5-15.4 1 1.4 2.9 3.9c.1.1.2.2.3.3l-1.1 8.4c0 .1 0 .2 0 .3 0 .1 0 .1 0 .2l-.3 2c0 0-.1 0-.1 0-.5.2-.9.9-1.2 1.5l-.6 1.1c-.1.2 0 .5.2.6.2.1.5 0 .6-.2l.7-1.4c0 0 .1-.1.1-.1v.1l-.8 3.3c-.1.2.1.5.3.5.2.1.5-.1.5-.3l.4-1.6c.1.1.2.2.2.2l-.5 2.1c-.1.2.1.5.3.5.2.1.5-.1.5-.3l.4-1.8c.1 0 .1 0 .2 0l-.3 1.7c0 .2.1.5.3.5.2 0 .5-.1.5-.3l.4-2c.1 0 .2-.1.3-.1l-.2 1.5c0 .2.1.5.4.5.2 0 .4-.1.5-.4l.5-3c0 0 0 0 0-.1l.2-1.2v-.1c0 0 0 0 0 0l.4-2.6c.1-.2.2-.4.2-.6l1.4-10.5c0-.1 0-.2 0-.3 0-.6-.2-1.2-.5-1.7l-7-9.4c-.4-.6-1-.9-1.7-1-.1 0-.3 0-.4 0-.1 0-.3 0-.4 0-.3-.1-.6-.2-1-.2h-4.4c.1-.1.2-.2.3-.3-.1-1 .3-1.9.3-1.9h-.2c1-.6 1.7-1.7 1.7-2.8v-.3-3.9c0-2.3-1.7-4.1-3.8-4.3.7 14.4.9 46.2-8.3 65.4.1 5 .1 10.2.1 14.7h-.6z" opacity=".2"/><path d="m227.6 397.9h1.5v12.8c0 .4.1.8.3 1.2v13.1h-.4v5.6c-.7.5-1.1 1.2-1.1 2.1h6.9c0-.9-.5-1.7-1.2-2.1v-5.6h-.3v-13.1c.2-.3.3-.8.3-1.2v-12.8h2l-.6-10.4-2.6-7.1h-.1l2.6-12.5 8.6 1.3c.1 0 .1.1.2.1.4.1.7 0 1-.2.2-.2.4-.4.4-.6.1-.2.2-.3.2-.5 0-.1 0-.2 0-.4l1.4-9.4c.1-.1.2-.3.2-.5l.4-1.8c0 0 0 0 0 0v-.1l.2-.8c0 0 0 0 0 0l.4-2.1c0-.2-.1-.3-.2-.3-.2 0-.3.1-.3.2l-.2 1c-.1-.1-.1-.1-.2-.1l.2-1.4c0-.2-.1-.3-.2-.3-.2 0-.3.1-.3.2l-.2 1.2c0 0 0 0 0 0-.1 0-.1 0-.2 0l.2-1.3c0-.2-.1-.3-.3-.3-.2 0-.3.1-.3.3l-.2 1.5c-.1 0-.1.1-.2.1l.1-1.1c0-.2-.1-.3-.3-.3-.2 0-.3.1-.3.3l-.3 2.3v.1c0 0 0-.1-.1-.1l-.1-1.1c0-.2-.2-.3-.3-.2-.2 0-.3.2-.3.3l.1.9c0 .4.1 1 .4 1.2l-.3 1.4c0 .1 0 .2 0 .3 0 .1-.1.2-.1.3l-1.3 8.3-8.6-1.3c-.4-.3-.9-.5-1.5-.5h-2.2c-1.1-.2-1.7-.5-1.8-1.2 0-.2 0-.1 0-.3 0-.1 0-.2 0-.3h3.4c0 0 .2-8.8-.7-11-.9-2.1-2.4-3-4-3.1 1.3 10.6 2.9 32 .3 49.3" opacity=".2"/><path d="m220.5 425.2v5.6c-.7.5-1.1 1.2-1.1 2.1h6.9c0-.9-.5-1.7-1.2-2.1v-5.5h-.3v-13.1c.2-.3.3-.7.3-1.2v-2c-1.1 3.4-2.5 6.4-4.2 8.8v7.5h-.4z" opacity=".2"/></g><path fill="#f78259" d="m293.9 230.4l12.9-17.3 17.4 12.8-11.1 29.3z"/><path d="m307.1 215.2l15.3 11.3-9.8 25.7-16.8-21.8 11.3-15.2m-.6-4.2l-1.8 2.4-11.3 15.3-1.4 1.8 1.4 1.8 16.8 21.8 3.3 4.2 1.9-5 9.8-25.7.8-2.1-1.8-1.4-15.3-11.3-2.4-1.8z" fill="#494949"/><g fill="#fff"><path d="m322.4 226.5l-15.3-11.3 2 13.3z"/><path d="m295.8 230.4l16.8 21.8-3.5-23.7z"/></g><path d="m312.7 252.2l9.8-25.7-10.4-7.7c.4 6.9-.6 16.3-6.3 24.5l6.9 8.9" opacity=".1" fill="#494949"/></svg>
